<?xml version="1.0" standalone="no"?>
<!DOCTYPE svg PUBLIC "-//W3C//DTD SVG 20010904//EN"
 "http://www.w3.org/TR/2001/REC-SVG-20010904/DTD/svg10.dtd">
<svg version="1.0" xmlns="http://www.w3.org/2000/svg"
 width="2560.000000pt" height="1282.000000pt" viewBox="0 0 2560.000000 1282.000000"
 preserveAspectRatio="xMidYMid meet">

<g transform="translate(0.000000,1282.000000) scale(0.100000,-0.100000)"
fill="#000000" stroke="none">
<path d="M263 12803 c-26 -77 -88 -212 -168 -373 -83 -165 -95 -196 -95 -241
l0 -51 31 26 c17 15 52 59 79 99 26 39 82 113 125 162 43 50 95 113 116 142
36 48 139 231 139 246 0 4 -50 7 -110 7 -96 0 -111 -2 -117 -17z"/>
<path d="M684 12748 c-25 -40 -77 -116 -113 -168 -37 -52 -121 -174 -187 -270
-130 -191 -240 -333 -327 -423 l-57 -59 0 -3459 0 -3458 30 -16 c30 -16 144
-51 271 -85 36 -9 97 -34 135 -54 64 -33 71 -40 83 -82 19 -64 9 -133 -30
-211 -32 -63 -39 -70 -104 -105 -38 -21 -74 -40 -80 -42 -21 -10 29 -35 93
-46 37 -6 71 -15 77 -19 5 -5 53 -12 105 -15 52 -4 117 -14 144 -22 27 -7 133
-28 235 -45 102 -17 188 -32 190 -35 11 -11 -131 -2 -179 12 -30 8 -100 19
-155 24 -118 10 -241 30 -422 71 -133 29 -227 37 -237 20 -4 -5 0 -12 6 -15 7
-3 -5 -4 -27 -1 -119 16 142 -54 335 -90 115 -21 373 -55 379 -50 2 2 -15 7
-38 11 -23 4 -40 9 -37 11 7 7 220 -26 333 -50 59 -13 114 -20 138 -17 l40 6
-33 7 c-101 22 -101 22 -27 27 41 3 85 0 107 -7 20 -6 99 -21 175 -32 180 -26
235 -44 285 -89 l40 -36 -4 -71 c-3 -49 -13 -85 -31 -120 -28 -56 -111 -140
-201 -205 -69 -50 -68 -51 59 -70 42 -6 95 -18 117 -26 22 -8 64 -14 92 -14
29 0 76 -7 104 -15 28 -9 82 -17 119 -20 37 -2 115 -17 173 -33 58 -17 177
-44 265 -61 249 -48 296 -65 350 -122 l45 -48 0 -128 c0 -121 -1 -131 -25
-166 -27 -39 -45 -44 -90 -27 -104 40 -437 111 -905 195 -491 88 -731 149
-872 223 -129 67 -133 73 -133 192 l0 99 41 43 c23 24 44 55 48 70 3 15 15 30
26 33 11 3 20 15 20 25 0 11 10 20 26 24 15 4 25 9 23 11 -2 1 -137 26 -299
55 -395 69 -492 87 -645 121 -71 16 -131 29 -132 29 -2 0 -3 -884 -3 -1965 l0
-1965 2523 0 2524 0 199 287 c304 441 484 674 634 823 82 81 166 142 189 138
8 -2 30 -22 48 -46 l33 -43 -38 -60 c-20 -33 -93 -136 -162 -229 -121 -163
-166 -230 -156 -230 11 0 179 139 329 272 89 79 211 184 270 232 60 49 114 97
120 107 8 12 23 19 44 19 17 0 35 5 39 12 5 7 11 5 21 -8 11 -15 17 -16 32 -7
24 15 133 -37 163 -78 12 -16 31 -29 42 -29 60 0 119 -31 144 -75 14 -25 54
-9 137 54 36 28 78 53 93 57 15 3 35 9 44 14 9 6 31 7 47 4 43 -9 67 2 51 21
-24 28 -1 28 23 0 14 -17 29 -25 36 -21 6 4 9 12 6 17 -9 13 9 11 23 -3 8 -8
15 -8 27 2 22 18 40 0 66 -68 17 -48 20 -71 16 -147 -3 -49 -8 -101 -12 -114
-8 -22 -7 -23 16 -11 49 26 121 95 211 203 51 61 124 146 161 189 l68 78 42
-21 c23 -12 52 -30 64 -41 12 -12 29 -18 37 -15 9 4 16 2 16 -3 0 -5 30 -41
67 -80 l66 -71 -16 -75 c-16 -75 -62 -181 -95 -219 -10 -11 -43 -42 -75 -68
-31 -27 -57 -54 -57 -61 0 -7 -9 -21 -20 -31 l-20 -18 22 -24 c29 -31 40 -29
109 15 42 26 58 43 56 57 -1 12 5 21 17 23 10 2 16 0 12 -6 -17 -28 55 -40
105 -18 10 5 24 -2 40 -18 13 -14 32 -26 41 -26 35 0 77 -52 93 -115 30 -117
19 -166 -64 -289 -85 -125 -106 -185 -85 -240 6 -15 447 -16 4900 -16 4325 0
4894 2 4894 15 0 8 18 26 39 39 22 14 42 30 46 36 15 24 46 8 77 -40 l33 -50
287 0 287 0 16 34 c23 48 59 78 99 82 28 4 38 -1 55 -22 12 -15 21 -41 21 -60
l0 -34 3240 0 3240 0 -2 3077 -3 3077 -97 66 c-85 57 -139 98 -99 75 9 -5 12
-4 7 3 -8 13 -120 82 -132 82 -5 0 0 -7 10 -15 24 -18 7 -19 -31 -3 -42 18
-253 139 -253 145 0 3 12 2 26 -1 14 -4 23 -3 20 2 -8 13 -136 75 -142 69 -14
-14 109 -211 288 -465 171 -241 264 -387 323 -506 l47 -96 -16 -40 c-9 -22
-16 -56 -16 -76 0 -79 -66 -165 -188 -245 -146 -96 -297 -120 -401 -64 -55 30
-84 63 -102 114 -10 28 -174 183 -362 340 -50 42 -90 84 -93 98 -4 13 -21 31
-39 41 -18 9 -56 39 -85 65 l-53 48 -1 117 c-1 103 -4 121 -23 153 -22 34 -22
37 -5 52 10 9 40 27 67 39 43 20 67 23 160 23 124 0 175 -13 271 -71 31 -19
64 -32 72 -29 18 7 29 1 237 -135 99 -64 197 -127 219 -140 l38 -23 -12 24
c-27 49 -68 92 -173 181 -116 98 -162 148 -196 216 -12 23 -46 71 -75 105 -80
95 -122 156 -158 233 -31 64 -33 76 -33 174 0 87 4 113 22 152 30 66 95 132
156 159 71 31 223 31 352 0 147 -35 305 -88 393 -130 l82 -40 0 113 0 114
-144 106 c-204 150 -238 194 -258 334 -9 66 -8 87 6 134 39 136 174 238 337
255 l59 6 0 1516 0 1516 -272 49 c-261 46 -545 112 -673 155 -84 28 -215 101
-234 130 -12 19 -16 49 -16 121 l1 95 41 40 c22 22 43 52 47 67 3 15 16 33 29
40 12 7 22 20 22 28 0 8 11 17 25 20 l25 6 -26 7 c-14 4 -169 32 -345 62 -801
140 -959 188 -1107 336 l-69 69 8 67 c6 61 19 98 60 175 8 16 27 31 42 34 15
4 41 19 58 34 28 24 51 33 159 58 33 8 35 10 13 11 -16 1 -28 5 -28 11 0 5
-134 53 -297 106 -164 53 -331 109 -371 125 l-73 29 -1949 0 c-1073 0 -1949
-3 -1948 -7 1 -5 -4 -19 -11 -31 -7 -14 -10 -35 -6 -49 4 -19 0 -32 -19 -52
-32 -34 -69 -117 -63 -142 5 -19 -47 -95 -86 -128 -9 -7 -14 -17 -11 -22 5 -9
-74 -127 -101 -149 -7 -6 -24 -31 -35 -55 -20 -41 -178 -229 -199 -237 -6 -2
-57 -45 -114 -96 -104 -92 -241 -241 -278 -301 -10 -17 -25 -31 -32 -31 -7 0
-20 -13 -29 -28 -20 -34 -108 -120 -198 -193 -158 -129 -400 -373 -400 -403 0
-4 14 1 31 9 108 56 -7 -68 -176 -190 -89 -64 -118 -79 -150 -81 -54 -3 -203
-30 -238 -43 -36 -14 -37 -14 -37 5 0 14 -8 16 -44 12 -37 -5 -48 -2 -64 16
-20 22 -19 58 1 50 7 -2 18 5 25 16 10 16 10 20 -1 20 -7 0 -18 -5 -24 -11
-11 -11 -51 3 -64 24 -4 5 -16 4 -30 -3 -16 -9 -24 -9 -27 -2 -3 11 -56 -2
-80 -21 -21 -16 -70 37 -64 69 3 17 7 22 12 14 16 -26 27 2 34 81 4 45 11 90
17 100 8 15 6 19 -7 19 -16 0 -16 2 1 20 17 19 17 20 0 20 -9 0 -31 -11 -47
-25 -34 -29 -52 -24 -44 11 8 32 -18 43 -44 19 -19 -17 -20 -17 -26 13 -8 37
-5 36 -49 18 -31 -13 -35 -13 -51 5 -10 11 -73 47 -141 80 -68 33 -123 65
-123 70 0 6 4 7 10 4 21 -13 286 317 369 460 18 32 7 23 -58 -45 -106 -111
-195 -221 -233 -287 -28 -49 -48 -61 -48 -27 0 23 -17 16 -45 -18 -24 -32 -26
-32 -40 -14 -13 17 -18 17 -45 6 -17 -7 -56 -28 -88 -47 -56 -34 -58 -34 -87
-18 -16 8 -41 25 -55 36 -25 20 -25 20 -2 14 l23 -7 -17 33 c-14 28 -14 36 -3
53 12 21 41 127 35 133 -2 2 -19 -22 -40 -52 -38 -58 -52 -69 -41 -34 7 20 6
20 -27 4 -18 -10 -42 -25 -52 -34 -19 -16 -19 -15 -1 13 l19 28 -55 -31 c-67
-38 -79 -38 -79 -6 0 22 -4 25 -39 25 -50 0 -56 10 -29 45 l21 27 -31 -6 c-39
-9 -56 15 -36 53 37 73 44 94 33 107 -7 8 -7 14 1 19 6 4 31 38 56 76 25 37
63 82 84 99 24 19 37 36 33 45 -6 18 -40 20 -45 3 -4 -12 -62 41 -96 90 l-22
30 90 178 90 177 -27 17 c-44 27 -103 98 -103 124 0 36 45 204 73 274 l26 62
-3942 0 -3941 0 -26 -25 c-14 -13 -40 -28 -57 -31 -27 -5 -37 -1 -63 25 -31
31 -32 31 -136 31 l-104 0 -10 -27 c-35 -96 -105 -138 -172 -102 -23 12 -48
66 -48 104 l0 25 -205 0 -205 0 -16 -26 c-21 -31 -64 -54 -102 -54 -31 0 -72
36 -72 63 0 16 -157 17 -2422 17 l-2423 0 -1 -98 c-2 -108 -23 -210 -59 -291
-17 -35 -22 -58 -16 -69 9 -17 -53 -175 -179 -457 -156 -348 -268 -602 -275
-626 -6 -19 3 -15 44 26 65 62 124 154 234 362 108 204 125 230 206 328 105
126 114 139 218 340 99 190 147 270 202 334 38 44 158 81 286 88 114 6 180
-16 258 -87 140 -128 159 -326 67 -684 -107 -417 -240 -744 -506 -1246 -66
-124 -133 -254 -149 -288 -27 -58 -82 -122 -105 -122 -20 0 -195 82 -229 107
-56 42 -91 83 -91 107 0 11 -9 50 -20 86 -22 69 -20 100 11 162 12 23 19 58
19 91 0 46 6 63 34 104 36 52 53 93 39 93 -5 0 -14 -5 -21 -12 -9 -9 -12 -8
-12 4 0 16 116 198 126 198 13 0 1 -32 -22 -60 -20 -23 -24 -34 -16 -42 9 -9
5 -23 -14 -55 -18 -32 -21 -43 -11 -43 21 0 34 20 42 63 4 21 17 50 30 65 50
62 205 318 205 340 0 16 -58 -53 -102 -123 -51 -81 -95 -135 -110 -135 -12 0
42 84 143 222 50 68 108 159 129 203 44 91 58 131 41 121 -20 -13 -12 21 48
206 73 228 93 316 89 398 l-3 65 -146 -245 c-81 -135 -195 -330 -254 -435 -60
-104 -140 -244 -178 -310 -158 -271 -307 -446 -447 -520 -72 -38 -79 -40 -165
-40 l-90 0 -125 65 c-137 71 -129 64 -200 168 -80 118 -81 125 -27 294 65 201
156 379 226 442 19 17 18 12 -8 -40 -16 -32 -33 -70 -36 -84 -5 -22 -1 -19 34
18 50 54 114 178 184 357 30 77 78 189 107 248 57 122 84 215 95 330 l7 77
-40 0 c-40 0 -42 -2 -88 -72z m6986 27 c18 -22 7 -136 -21 -210 -15 -41 -38
-75 -75 -112 -47 -47 -58 -53 -94 -53 -45 0 -90 34 -90 68 0 53 55 151 135
243 69 78 116 99 145 64z m1262 -45 c28 -29 30 -35 26 -89 -6 -79 -45 -145
-104 -173 -52 -26 -90 -18 -113 24 -20 34 -6 77 50 160 22 32 39 64 39 71 0
44 60 48 102 7z m-621 -78 c60 -54 50 -162 -22 -226 -50 -45 -97 -49 -136 -10
-24 24 -25 31 -21 94 6 82 30 128 78 152 49 24 65 22 101 -10z m-1201 -222
c42 -42 16 -194 -41 -234 -35 -24 -81 -20 -110 10 -19 20 -24 35 -23 73 4 120
111 214 174 151z m-771 -51 c55 -90 51 -187 -12 -256 -26 -28 -42 -36 -79 -40
-40 -5 -50 -2 -72 20 -29 29 -34 82 -15 152 6 22 12 55 13 74 1 22 8 38 20 45
10 6 31 21 45 33 42 36 64 30 100 -28z m1456 -239 c3 -5 13 -10 22 -10 9 0 27
-10 40 -22 18 -17 23 -32 23 -75 0 -46 -4 -58 -32 -88 -57 -61 -127 -63 -155
-5 -18 40 -2 149 28 182 24 28 62 37 74 18z m-979 -61 c13 -12 33 -27 46 -33
94 -47 87 -215 -12 -266 -54 -28 -95 -26 -127 6 -25 25 -25 29 -20 117 10 173
51 235 113 176z m1609 -82 c43 -41 55 -60 55 -84 0 -41 -37 -93 -85 -120 -53
-30 -134 -32 -160 -3 -28 31 -16 98 29 158 20 27 36 56 36 64 0 8 5 19 12 26
25 25 58 12 113 -41z m-1124 -7 c10 -6 19 -17 19 -25 0 -8 13 -21 30 -30 37
-19 50 -43 50 -92 0 -45 -20 -77 -60 -98 -60 -31 -107 -12 -140 57 -24 49 -25
71 -6 87 8 7 17 24 21 39 15 63 44 84 86 62z m-954 -256 c61 -38 67 -130 17
-231 -56 -111 -165 -152 -226 -84 -30 33 -37 85 -18 122 8 15 7 23 -5 35 -20
21 -19 30 10 80 53 90 149 123 222 78z m1336 -166 c57 -22 76 -117 34 -179
-22 -34 -96 -79 -130 -79 -10 0 -29 11 -42 25 -27 26 -32 70 -15 134 5 20 12
48 15 63 10 50 66 65 138 36z m-633 -93 c48 -51 33 -201 -23 -240 -13 -9 -44
-15 -78 -15 -53 0 -57 2 -69 29 -14 35 -8 70 27 159 37 93 94 120 143 67z
m10380 -415 c-6 -11 -15 -20 -21 -20 -6 0 -6 7 1 20 6 11 15 20 21 20 6 0 6
-7 -1 -20z m-60 -84 c-11 -19 -44 -54 -73 -77 l-52 -43 49 52 c28 28 47 55 43
59 -4 3 5 20 20 35 34 36 42 20 13 -26z m-175 -136 c-3 -5 -16 -15 -28 -21
-21 -10 -21 -9 2 10 25 23 36 27 26 11z m44 -7 c-91 -109 -114 -135 -132 -145
-12 -6 14 28 58 76 43 47 80 86 83 86 3 0 -1 -8 -9 -17z m-11731 -1508 c58
-35 77 -110 44 -174 -25 -50 -72 -71 -159 -71 l-73 0 0 -60 c0 -57 -1 -60 -25
-60 l-25 0 0 188 c0 104 3 192 8 196 4 5 50 6 103 4 69 -4 104 -10 127 -23z
m450 -2 c3 -23 2 -23 -107 -23 l-111 0 0 -60 0 -59 98 -3 c89 -3 97 -5 97 -23
0 -18 -8 -20 -97 -23 l-98 -3 0 -64 0 -65 115 0 c108 0 115 -1 115 -20 0 -19
-7 -20 -140 -20 l-140 0 0 188 c0 104 3 192 7 196 4 3 63 5 132 4 122 -3 126
-4 129 -25z m272 -108 c40 -74 75 -133 78 -131 4 2 36 63 72 136 59 120 67
131 90 128 l25 -3 3 -192 2 -193 -25 0 -25 0 0 148 -1 147 -65 -128 c-47 -90
-71 -127 -82 -125 -8 2 -46 62 -83 133 l-69 130 0 -152 c0 -146 -1 -153 -20
-153 -19 0 -20 7 -20 195 l0 195 25 0 c21 0 33 -18 95 -135z m700 110 l0 -25
-110 0 -110 0 0 -60 0 -60 100 0 100 0 0 -25 0 -25 -100 0 -101 0 3 -62 3 -63
113 -3 c104 -2 112 -4 112 -22 0 -19 -7 -20 -135 -20 l-135 0 0 195 0 195 130
0 130 0 0 -25z m305 -125 c61 -82 113 -150 118 -150 4 0 7 68 7 150 0 143 1
150 20 150 19 0 20 -7 20 -195 l0 -195 -24 0 c-20 0 -45 28 -133 147 l-108
147 -3 -147 -3 -147 -24 0 -25 0 0 195 0 195 23 0 c17 0 47 -35 132 -150z
m536 139 c62 -13 122 -64 140 -116 29 -88 -1 -183 -73 -230 -38 -26 -51 -28
-155 -31 l-113 -4 0 196 0 196 75 0 c40 0 97 -5 126 -11z m549 -14 l0 -25
-105 0 -105 0 0 -60 0 -60 95 0 c95 0 95 0 95 -25 0 -25 0 -25 -95 -25 l-95 0
0 -65 0 -65 110 0 c103 0 110 -1 110 -20 0 -19 -7 -20 -135 -20 l-135 0 0 195
0 195 130 0 130 0 0 -25z m202 -83 l3 -108 100 108 c70 75 107 108 123 108 12
0 22 -3 22 -7 0 -3 -31 -41 -70 -84 -38 -42 -70 -80 -70 -83 0 -4 36 -54 81
-111 l81 -105 -31 0 c-26 0 -39 12 -99 89 l-69 90 -37 -38 c-32 -33 -36 -43
-36 -89 0 -49 -2 -52 -25 -52 l-25 0 0 188 c0 104 3 192 7 195 3 4 14 7 24 7
16 0 19 -12 21 -108z m838 83 c0 -24 -2 -25 -65 -25 l-65 0 0 -170 c0 -163 -1
-170 -20 -170 -19 0 -20 7 -20 170 l0 170 -65 0 c-56 0 -65 2 -65 18 0 10 3
22 7 25 3 4 71 7 150 7 l143 0 0 -25z m366 -169 c46 -104 84 -190 84 -192 0
-2 -10 -4 -23 -4 -18 0 -29 11 -47 50 l-24 51 -100 -3 -101 -3 -23 -47 c-18
-38 -27 -48 -47 -48 l-25 0 24 53 c13 28 49 111 81 182 66 149 71 157 98 153
15 -2 39 -48 103 -192z m234 69 c0 -150 12 -188 64 -210 20 -8 45 -15 57 -15
30 0 86 28 95 48 5 9 11 80 14 157 5 136 6 140 28 143 22 3 22 3 22 -135 0
-157 -10 -191 -69 -230 -43 -29 -130 -31 -180 -5 -60 32 -71 67 -71 229 0 136
1 143 20 143 19 0 20 -7 20 -125z m688 98 c3 -22 0 -23 -62 -23 l-66 0 0 -170
0 -170 -25 0 -25 0 0 170 0 170 -60 0 c-58 0 -60 1 -60 25 l0 26 148 -3 c144
-3 147 -3 150 -25z m352 -135 c112 -251 105 -228 75 -228 -22 0 -30 8 -47 50
l-21 50 -102 0 -102 0 -23 -50 c-19 -40 -28 -50 -48 -50 -15 0 -22 5 -19 13 3
6 42 94 87 195 108 238 102 237 200 20z m373 5 l117 -157 0 157 c0 150 1 157
20 157 19 0 20 -7 20 -196 l0 -195 -25 3 c-19 2 -51 38 -135 153 l-110 149 0
-152 0 -152 -25 0 -25 0 0 188 c0 104 3 192 7 195 21 21 49 -5 156 -150z m588
57 c34 -56 64 -99 67 -96 3 3 30 47 62 98 39 65 63 94 78 96 12 2 22 0 22 -4
0 -3 -31 -62 -70 -129 -67 -118 -70 -125 -70 -189 0 -64 -1 -66 -25 -66 -24 0
-25 2 -25 68 0 65 -2 71 -70 185 -39 66 -70 123 -70 128 0 5 9 9 20 9 13 0 37
-29 81 -100z m595 -94 c46 -104 84 -190 84 -192 0 -2 -10 -4 -23 -4 -18 0 -29
11 -47 50 l-24 51 -100 -3 -101 -3 -23 -47 c-18 -38 -27 -48 -47 -48 l-25 0
24 53 c13 28 49 111 81 182 66 149 71 157 98 153 15 -2 39 -48 103 -192z m356
44 l113 -150 5 147 c5 144 6 148 28 151 l22 3 0 -195 0 -196 -25 0 c-21 0 -45
26 -138 152 l-112 152 -3 -152 c-2 -144 -4 -152 -22 -152 -19 0 -20 8 -20 195
0 251 -2 251 152 45z m597 122 c38 -18 45 -30 33 -49 -6 -10 -17 -8 -48 8 -49
26 -132 22 -172 -8 -42 -30 -64 -80 -59 -134 5 -57 30 -93 83 -119 48 -24 82
-25 129 -6 33 14 34 17 37 73 3 52 5 58 26 61 22 3 23 2 20 -70 l-3 -73 -45
-22 c-149 -76 -320 40 -296 200 7 46 57 116 99 139 58 31 134 31 196 0z m619
6 c18 -10 26 -20 24 -33 -5 -27 -2 -26 -47 -10 -81 29 -145 14 -145 -35 0 -35
19 -49 100 -75 70 -23 110 -62 110 -107 0 -109 -163 -147 -273 -63 -15 11 -16
17 -7 34 l11 21 28 -21 c37 -27 94 -39 135 -28 44 12 60 32 52 64 -7 26 -25
37 -120 70 -81 29 -110 76 -85 136 25 62 137 86 217 47z m232 -173 l0 -195
-25 0 -25 0 0 188 c0 104 3 192 7 195 3 4 15 7 25 7 17 0 18 -13 18 -195z
m290 60 c40 -74 75 -133 78 -131 4 2 36 63 72 136 59 120 67 131 90 128 l25
-3 3 -192 2 -193 -25 0 -25 0 0 148 -1 147 -65 -128 c-47 -90 -71 -127 -82
-125 -8 2 -46 62 -83 133 l-69 130 0 -152 c0 -146 -1 -153 -20 -153 -19 0 -20
7 -20 195 l0 195 25 0 c21 0 33 -18 95 -135z m667 112 c46 -25 63 -54 63 -113
0 -92 -56 -134 -180 -134 l-70 0 0 -60 c0 -53 -2 -60 -20 -60 -19 0 -20 7 -20
196 l0 197 98 -5 c63 -3 108 -11 129 -21z m453 -2 l0 -25 -105 0 -105 0 0 -60
0 -60 95 0 c95 0 95 0 95 -25 0 -25 0 -25 -95 -25 l-95 0 0 -65 0 -65 110 0
c103 0 110 -1 110 -20 0 -19 -7 -20 -135 -20 l-135 0 0 195 0 195 130 0 130 0
0 -25z m200 -150 l0 -175 85 0 c78 0 85 -2 85 -20 0 -19 -7 -20 -110 -20
l-110 0 0 188 c0 104 3 192 7 195 3 4 15 7 25 7 17 0 18 -12 18 -175z m740
150 c80 -41 114 -99 108 -186 -5 -66 -32 -112 -87 -149 -32 -21 -50 -25 -148
-28 l-113 -4 0 197 0 198 103 -5 c71 -3 113 -10 137 -23z m480 -137 c112 -251
105 -228 75 -228 -22 0 -30 8 -47 50 l-21 50 -102 0 -102 0 -23 -50 c-19 -40
-28 -50 -48 -50 -15 0 -22 5 -19 13 3 6 42 94 87 195 108 238 102 237 200 20z
m372 10 l113 -152 3 152 c3 152 3 153 25 150 22 -3 22 -5 25 -195 l2 -193 -27
0 c-24 0 -42 20 -138 151 l-110 151 -3 -151 -3 -151 -24 0 -25 0 0 188 c0 104
3 192 7 195 22 23 49 -3 155 -145z m663 10 l70 -137 70 137 c62 122 73 137 98
140 l27 3 0 -195 c0 -188 -1 -196 -20 -196 -18 0 -20 8 -22 153 l-3 152 -68
-132 c-40 -81 -73 -133 -82 -133 -9 0 -42 52 -82 133 l-68 132 -3 -152 c-2
-145 -4 -153 -22 -153 -19 0 -20 8 -20 196 l0 195 28 -3 c24 -3 35 -19 97
-140z m475 10 c0 -150 7 -174 60 -201 47 -24 105 -17 139 17 25 25 26 32 31
169 5 140 5 142 28 145 l24 4 -4 -149 c-3 -165 -10 -186 -71 -223 -41 -26
-129 -27 -177 -2 -60 30 -75 69 -79 215 -1 70 0 134 3 142 3 8 15 15 26 15 19
0 20 -6 20 -132z m680 107 c80 -41 114 -99 108 -186 -5 -66 -32 -112 -87 -149
-32 -21 -50 -25 -148 -28 l-113 -4 0 197 0 198 103 -5 c71 -3 113 -10 137 -23z
m496 -169 c46 -104 84 -190 84 -192 0 -2 -10 -4 -23 -4 -18 0 -29 11 -47 50
l-24 51 -100 -3 -101 -3 -23 -47 c-18 -38 -27 -48 -47 -48 l-25 0 24 53 c13
28 49 111 81 182 66 149 71 157 98 153 15 -2 39 -48 103 -192z m244 104 l0
-90 115 0 115 0 0 91 c0 88 1 90 23 87 22 -3 22 -4 25 -195 l2 -193 -25 0
c-25 0 -25 1 -25 85 l0 85 -115 0 -115 0 0 -85 c0 -84 0 -85 -25 -85 l-25 0 0
188 c0 104 3 192 7 195 3 4 15 7 25 7 16 0 18 -9 18 -90z m-10767 -1667 c19
-22 42 -206 57 -458 12 -203 17 -245 29 -245 5 0 29 35 53 78 61 104 125 172
198 211 119 63 227 51 312 -37 93 -96 137 -227 145 -439 l6 -141 -26 -26 c-22
-22 -35 -26 -82 -26 -79 0 -95 19 -95 109 0 153 -48 331 -106 389 -35 35 -60
40 -103 18 -78 -41 -175 -216 -255 -462 -24 -75 -52 -97 -122 -97 -49 0 -61 4
-79 25 -19 22 -23 42 -29 164 -8 161 -27 355 -62 614 -28 217 -30 267 -8 298
21 30 48 41 105 41 32 1 51 -4 62 -16z m3096 3 c20 -23 47 -268 66 -594 4 -62
11 -114 15 -117 4 -3 29 32 55 77 61 105 142 190 214 226 79 39 176 39 242 0
119 -70 191 -238 205 -479 10 -162 -10 -199 -110 -199 -73 0 -83 16 -95 155
-12 150 -34 239 -75 307 -51 86 -106 90 -181 12 -52 -53 -128 -203 -181 -357
-20 -60 -44 -117 -53 -128 -32 -40 -149 -43 -177 -4 -7 9 -15 56 -18 103 -19
266 -31 383 -62 635 -39 306 -38 334 14 362 36 19 126 20 141 1z m-1366 -204
c92 -41 147 -114 147 -197 0 -54 -30 -91 -81 -102 -17 -3 -33 -12 -36 -21 -4
-8 -1 -61 5 -118 13 -113 34 -168 78 -203 32 -25 60 -26 132 -4 l54 17 24 -27
c29 -34 30 -52 4 -94 -41 -68 -178 -123 -259 -104 -82 18 -143 88 -176 203 -9
32 -20 60 -25 63 -5 3 -27 -17 -50 -44 -57 -68 -146 -135 -226 -173 -129 -60
-276 -49 -342 27 -110 125 -39 355 174 568 199 199 419 279 577 209z m809 -1
c42 -11 103 -33 135 -50 60 -30 123 -89 123 -116 0 -20 -57 -83 -91 -101 -43
-22 -57 -18 -141 37 -117 77 -189 96 -236 63 -33 -23 -29 -64 11 -101 17 -17
84 -64 147 -104 271 -171 360 -272 368 -421 5 -82 -10 -129 -56 -180 -52 -58
-104 -81 -193 -86 -213 -13 -368 116 -369 306 0 118 35 162 127 162 40 0 58
-5 73 -20 24 -24 24 -22 5 -84 -23 -76 -1 -132 66 -167 116 -59 195 24 121
127 -37 50 -86 90 -254 202 -250 169 -311 272 -242 410 62 125 216 171 406
123z m4371 -92 c34 -11 80 -34 102 -50 66 -49 115 -138 115 -209 -1 -44 -37
-108 -79 -138 -53 -39 -95 -48 -328 -71 -106 -11 -197 -22 -203 -26 -18 -11
-11 -53 15 -84 55 -64 208 -90 338 -56 64 16 154 60 206 99 47 35 83 34 115
-5 40 -47 35 -89 -14 -132 -136 -116 -386 -182 -561 -148 -170 34 -253 107
-323 284 -12 29 -20 37 -41 37 -30 0 -75 40 -75 67 0 31 20 92 33 100 7 4 30
10 51 13 36 4 43 11 75 66 55 93 89 132 158 181 127 91 281 117 416 72z
m-1652 -21 c80 -24 151 -112 189 -237 10 -30 23 -57 29 -59 6 -2 20 18 31 44
49 113 139 197 225 210 157 23 261 -169 319 -594 22 -158 21 -188 -9 -217 -20
-21 -34 -25 -83 -25 -79 0 -88 11 -102 135 -28 254 -69 435 -107 477 -65 72
-125 -58 -199 -428 -9 -47 -38 -67 -101 -72 -90 -6 -93 -2 -112 168 -19 175
-74 344 -127 398 -39 39 -48 40 -80 5 -49 -53 -81 -202 -90 -418 -7 -176 -8
-181 -44 -200 -37 -19 -124 -20 -143 -1 -9 10 -17 49 -21 113 -8 118 -37 314
-65 443 -33 150 -30 166 46 204 38 19 97 21 110 4 6 -7 16 -37 23 -66 6 -28
16 -54 20 -57 5 -3 23 22 41 56 58 109 144 149 250 117z m-875 -528 c12 -7 29
-26 38 -41 38 -64 2 -127 -76 -136 -92 -11 -158 35 -158 108 0 45 24 75 67 85
16 3 33 7 38 8 16 4 68 -10 91 -24z m10618 -1157 c19 -10 25 -18 18 -25 -15
-15 -67 0 -93 28 l-23 24 35 -6 c19 -4 47 -13 63 -21z m-21153 -662 c21 -22
29 -39 29 -66 0 -27 -8 -44 -29 -66 -26 -26 -36 -29 -90 -29 l-61 0 0 -45 c0
-38 -3 -45 -20 -45 -19 0 -20 7 -20 140 l0 140 81 0 c76 0 82 -2 110 -29z
m319 14 c0 -12 -16 -15 -80 -15 l-80 0 0 -45 0 -45 70 0 c56 0 70 -3 70 -15 0
-12 -14 -15 -70 -15 l-70 0 0 -50 0 -50 80 0 c64 0 80 -3 80 -15 0 -12 -18
-15 -100 -15 l-100 0 0 140 0 140 100 0 c82 0 100 -3 100 -15z m301 -14 c30
-36 26 -106 -7 -136 l-27 -25 27 -40 c31 -47 31 -50 8 -50 -10 0 -29 19 -44
45 -26 43 -30 45 -73 45 l-45 0 0 -45 c0 -38 -3 -45 -20 -45 -19 0 -20 7 -20
141 l0 141 91 -4 c81 -3 93 -6 110 -27z m330 12 c48 -29 30 -54 -20 -28 -97
50 -202 -42 -156 -138 16 -35 64 -67 99 -67 9 0 33 7 53 15 51 21 67 3 22 -24
-65 -40 -160 -19 -199 44 -40 65 -20 152 46 196 37 24 116 25 155 2z m310
-120 c32 -73 59 -135 59 -138 0 -3 -9 -5 -19 -5 -13 0 -23 11 -31 35 l-12 35
-77 0 -77 0 -17 -35 c-9 -19 -23 -35 -32 -35 -21 0 -20 0 26 104 23 50 50 110
60 134 32 74 51 59 120 -95z m267 25 l82 -112 0 112 c0 93 3 112 15 112 13 0
15 -22 15 -140 0 -179 -5 -180 -117 -28 l-83 112 0 -112 c0 -93 -3 -112 -15
-112 -13 0 -15 22 -15 140 0 180 6 182 118 28z m422 97 c0 -11 -12 -15 -45
-15 l-45 0 0 -125 c0 -118 -1 -125 -20 -125 -19 0 -20 7 -20 125 l0 125 -45 0
c-33 0 -45 4 -45 15 0 12 19 15 110 15 91 0 110 -3 110 -15z m120 -125 c0
-133 -1 -140 -20 -140 -19 0 -20 7 -20 140 0 133 1 140 20 140 19 0 20 -7 20
-140z m150 63 l0 -78 78 78 c93 93 141 108 63 20 -28 -31 -51 -61 -51 -66 0
-7 24 -42 103 -144 7 -10 3 -13 -14 -13 -18 1 -37 19 -74 67 l-49 65 -28 -31
c-19 -22 -28 -42 -28 -66 0 -24 -5 -35 -15 -35 -13 0 -15 22 -15 140 0 118 2
140 15 140 12 0 15 -15 15 -77z m620 62 c0 -11 -12 -15 -45 -15 l-45 0 0 -125
c0 -118 -1 -125 -20 -125 -19 0 -20 7 -20 125 l0 125 -45 0 c-33 0 -45 4 -45
15 0 12 19 15 110 15 91 0 110 -3 110 -15z m271 -122 c32 -73 59 -135 59 -138
0 -3 -9 -5 -19 -5 -13 0 -23 11 -31 35 l-12 35 -77 0 -77 0 -17 -35 c-9 -19
-23 -35 -32 -35 -21 0 -20 0 26 104 23 50 50 110 60 134 32 74 51 59 120 -95z
m169 47 c0 -49 5 -100 11 -113 23 -50 95 -62 134 -22 23 22 25 31 25 125 0 93
1 100 20 100 19 0 20 -7 20 -90 0 -140 -31 -190 -118 -190 -53 0 -94 20 -110
55 -7 14 -12 70 -12 125 0 82 3 100 15 100 12 0 15 -17 15 -90z m508 78 c-3
-7 -25 -14 -51 -16 l-47 -3 0 -125 c0 -104 -2 -124 -15 -124 -13 0 -15 20 -15
124 l0 125 -47 3 c-26 2 -48 9 -51 16 -3 9 24 12 113 12 89 0 116 -3 113 -12z
m264 -122 c32 -71 58 -133 58 -138 0 -22 -32 -4 -47 27 l-17 35 -76 0 -76 0
-13 -35 c-8 -24 -18 -35 -33 -35 -12 0 -18 5 -15 13 3 6 31 70 63 140 75 167
78 167 156 -7z m265 27 l78 -106 3 106 c2 99 4 107 22 107 19 0 20 -7 20 -140
0 -133 -1 -140 -20 -140 -14 0 -46 35 -102 110 l-83 111 -3 -111 c-2 -89 -5
-110 -17 -110 -13 0 -15 24 -15 140 0 132 1 140 19 140 13 0 45 -35 98 -107z
m337 10 l48 -97 51 97 c42 80 54 97 74 97 23 0 23 0 23 -140 0 -133 -1 -140
-20 -140 -19 0 -20 7 -21 108 l0 107 -47 -92 c-26 -51 -52 -93 -59 -93 -7 0
-35 44 -62 98 l-50 97 0 -112 c-1 -94 -4 -113 -16 -113 -13 0 -15 22 -15 140
0 139 0 140 23 140 19 0 31 -17 71 -97z m346 -3 c0 -94 2 -103 25 -125 41 -42
116 -27 135 28 5 16 10 68 10 113 0 68 3 84 15 84 12 0 15 -18 15 -100 0 -55
-5 -111 -12 -125 -16 -35 -57 -55 -110 -55 -87 0 -118 50 -118 190 0 83 1 90
20 90 19 0 20 -7 20 -100z m710 -5 c0 -142 -17 -175 -90 -175 -35 0 -80 34
-64 50 8 8 18 7 39 -4 28 -15 54 -11 67 8 4 6 8 53 8 104 l0 92 -50 0 c-38 0
-50 4 -50 15 0 12 14 15 70 15 l70 0 0 -105z m248 78 c5 -16 33 -79 60 -140
46 -103 49 -113 31 -113 -13 0 -25 12 -35 35 l-14 35 -75 0 -75 0 -17 -35
c-10 -21 -24 -35 -35 -35 -16 0 -16 5 8 58 14 31 42 94 61 140 30 67 40 82 59
82 15 0 25 -9 32 -27z m389 7 c89 -54 82 -200 -11 -244 -22 -10 -61 -16 -110
-16 l-76 0 0 140 0 140 83 0 c64 0 89 -4 114 -20z m193 -120 c0 -118 -2 -140
-15 -140 -13 0 -15 22 -15 140 0 118 2 140 15 140 13 0 15 -22 15 -140z m160
63 l1 -78 73 78 c50 53 80 77 96 77 20 0 16 -7 -34 -60 l-57 -60 61 -80 c55
-73 59 -80 38 -80 -17 0 -37 18 -73 65 l-49 65 -28 -27 c-21 -20 -28 -36 -28
-65 0 -27 -4 -38 -15 -38 -13 0 -15 22 -15 140 0 118 2 140 15 140 12 0 15
-15 15 -77z m472 -57 c32 -71 58 -133 58 -138 0 -22 -32 -4 -47 27 l-17 35
-76 0 -76 0 -13 -35 c-8 -24 -18 -35 -33 -35 -12 0 -18 5 -15 13 3 6 31 70 63
140 75 167 78 167 156 -7z m265 27 l78 -106 3 106 c2 99 4 107 22 107 19 0 20
-7 20 -140 0 -133 -1 -140 -20 -140 -14 0 -46 35 -102 110 l-83 111 -3 -111
c-2 -89 -5 -110 -17 -110 -13 0 -15 24 -15 140 0 132 1 140 19 140 13 0 45
-35 98 -107z m575 -27 c32 -71 58 -133 58 -138 0 -22 -32 -4 -47 27 l-17 35
-76 0 -76 0 -13 -35 c-8 -24 -18 -35 -33 -35 -12 0 -18 5 -15 13 3 6 31 70 63
140 75 167 78 167 156 -7z m338 119 c29 -15 36 -26 24 -37 -3 -3 -23 1 -44 9
-81 32 -160 -16 -160 -98 0 -74 81 -128 153 -100 24 9 27 16 27 56 0 33 4 45
15 45 12 0 15 -13 15 -55 0 -50 -2 -56 -30 -70 -93 -48 -220 22 -220 123 0 52
44 118 90 135 30 11 102 7 130 -8z m288 -12 c5 -16 33 -79 60 -140 46 -103 49
-113 31 -113 -13 0 -25 12 -35 35 l-14 35 -75 0 -75 0 -17 -35 c-10 -21 -24
-35 -35 -35 -16 0 -16 5 8 58 14 31 42 94 61 140 30 67 40 82 59 82 15 0 25
-9 32 -27z m383 -2 c40 -41 40 -91 -1 -132 l-30 -30 24 -32 c37 -51 39 -57 18
-57 -13 0 -31 17 -49 45 -27 44 -29 46 -73 43 l-45 -3 -3 -42 c-2 -29 -8 -43
-18 -43 -11 0 -14 25 -14 140 l0 140 81 0 c76 0 82 -2 110 -29z m382 -66 c26
-53 51 -94 55 -91 4 2 27 45 52 95 36 75 48 91 67 91 23 0 23 -1 23 -140 0
-118 -2 -140 -15 -140 -12 0 -15 19 -15 113 l0 112 -53 -97 c-28 -54 -57 -98
-62 -98 -6 0 -31 42 -57 93 l-47 92 0 -107 c-1 -101 -2 -108 -21 -108 -19 0
-20 7 -20 140 0 139 0 140 23 140 19 0 31 -17 70 -95z m347 -4 c0 -123 13
-146 84 -146 71 0 80 16 84 140 3 82 7 105 18 105 11 0 14 -22 14 -111 0 -109
0 -111 -29 -140 -25 -25 -37 -29 -85 -29 -97 0 -125 46 -126 203 0 70 2 77 20
77 19 0 20 -7 20 -99z m517 79 c89 -54 82 -200 -11 -244 -22 -10 -61 -16 -110
-16 l-76 0 0 140 0 140 83 0 c64 0 89 -4 114 -20z m345 -114 c32 -71 58 -133
58 -138 0 -22 -32 -4 -47 27 l-17 35 -76 0 -76 0 -13 -35 c-8 -24 -18 -35 -33
-35 -12 0 -18 5 -15 13 3 6 31 70 63 140 75 167 78 167 156 -7z m178 74 l0
-60 85 0 85 0 0 60 c0 53 2 60 20 60 19 0 20 -7 20 -140 0 -133 -1 -140 -20
-140 -18 0 -20 7 -20 60 l0 60 -85 0 -85 0 0 -60 c0 -47 -3 -60 -15 -60 -13 0
-15 22 -15 140 0 118 2 140 15 140 12 0 15 -13 15 -60z m663 45 c99 -48 101
-186 5 -245 -26 -15 -51 -20 -110 -20 l-78 0 0 140 0 140 76 0 c48 0 88 -6
107 -15z m207 -125 c0 -118 -2 -140 -15 -140 -13 0 -15 22 -15 140 0 118 2
140 15 140 13 0 15 -22 15 -140z m160 0 c0 -133 -1 -140 -20 -140 -19 0 -20 7
-20 140 0 133 1 140 20 140 19 0 20 -7 20 -140z m238 35 l77 -104 3 104 c2 97
4 105 22 105 19 0 20 -7 20 -140 0 -131 -1 -140 -19 -140 -13 0 -46 36 -98
106 l-78 105 -3 -105 c-2 -98 -4 -106 -22 -106 -19 0 -20 7 -20 140 0 134 1
140 20 140 14 0 44 -32 98 -105z m442 90 c19 -10 27 -20 24 -30 -7 -18 -12
-18 -44 0 -72 41 -170 -15 -170 -97 0 -70 81 -122 154 -98 34 11 36 14 36 56
0 32 4 44 15 44 11 0 15 -13 15 -54 0 -51 -2 -54 -34 -70 -76 -36 -168 -10
-202 56 -34 66 -12 151 49 188 39 24 116 26 157 5z m326 -117 c32 -72 61 -135
62 -140 2 -4 -5 -8 -15 -8 -12 0 -26 13 -36 35 l-17 35 -75 0 -75 0 -14 -35
c-10 -23 -22 -35 -35 -35 -18 0 -13 14 40 132 72 159 66 148 88 148 13 0 33
-34 77 -132z m332 120 c-3 -7 -25 -14 -51 -16 l-47 -3 0 -125 c0 -104 -2 -124
-15 -124 -13 0 -15 20 -15 124 l0 125 -47 3 c-26 2 -48 9 -51 16 -3 9 24 12
113 12 89 0 116 -3 113 -12z m542 -8 c26 -26 25 -68 -2 -97 -12 -13 -17 -23
-10 -23 21 0 42 -32 42 -65 0 -56 -35 -75 -136 -75 l-84 0 0 140 0 140 85 0
c72 0 88 -3 105 -20z m321 -117 c32 -73 59 -135 59 -138 0 -3 -9 -5 -19 -5
-13 0 -23 11 -31 35 l-12 35 -77 0 -77 0 -17 -35 c-9 -19 -23 -35 -32 -35 -21
0 -20 0 26 104 23 50 50 110 60 134 32 74 51 59 120 -95z m339 122 c29 -15 36
-26 24 -37 -3 -3 -23 1 -44 9 -81 32 -160 -16 -160 -98 0 -74 81 -128 153
-100 24 9 27 16 27 56 0 33 4 45 15 45 12 0 15 -13 15 -55 0 -50 -2 -56 -30
-70 -93 -48 -220 22 -220 123 0 52 44 118 90 135 30 11 102 7 130 -8z m180
-125 c0 -118 -2 -140 -15 -140 -13 0 -15 22 -15 140 0 118 2 140 15 140 13 0
15 -22 15 -140z m160 63 l1 -78 73 78 c50 53 80 77 96 77 20 0 16 -7 -34 -60
l-57 -60 61 -80 c55 -73 59 -80 38 -80 -17 0 -37 18 -73 65 l-49 65 -28 -27
c-21 -20 -28 -36 -28 -65 0 -27 -4 -38 -15 -38 -13 0 -15 22 -15 140 0 118 2
140 15 140 12 0 15 -15 15 -77z m472 -57 c32 -71 58 -133 58 -138 0 -22 -32
-4 -47 27 l-17 35 -76 0 -76 0 -13 -35 c-8 -24 -18 -35 -33 -35 -12 0 -18 5
-15 13 3 6 31 70 63 140 75 167 78 167 156 -7z m265 27 l78 -106 3 106 c2 99
4 107 22 107 19 0 20 -7 20 -140 0 -133 -1 -140 -20 -140 -14 0 -46 35 -102
110 l-83 111 -3 -111 c-2 -89 -5 -110 -17 -110 -13 0 -15 24 -15 140 0 132 1
140 19 140 13 0 45 -35 98 -107z m423 30 l0 -78 78 78 c93 93 141 108 63 20
-28 -31 -51 -61 -51 -66 0 -7 24 -42 103 -144 7 -10 3 -13 -14 -13 -18 1 -37
19 -74 67 l-49 65 -28 -31 c-19 -22 -28 -42 -28 -66 0 -24 -5 -35 -15 -35 -13
0 -15 22 -15 140 0 118 2 140 15 140 12 0 15 -15 15 -77z m480 62 c0 -12 -16
-15 -80 -15 l-80 0 0 -45 0 -45 75 0 c59 0 75 -3 75 -15 0 -11 -17 -15 -72
-17 l-73 -3 -3 -47 -3 -48 85 0 c70 0 86 -3 86 -15 0 -12 -18 -15 -100 -15
l-100 0 0 140 0 140 95 0 c78 0 95 -3 95 -15z m467 -5 c87 -53 86 -186 -2
-240 -30 -18 -47 -22 -92 -18 -50 4 -60 9 -95 46 -33 36 -38 47 -38 89 0 54
22 95 66 124 39 26 119 25 161 -1z m354 -9 c40 -41 40 -91 -1 -132 l-30 -30
24 -32 c37 -51 39 -57 18 -57 -13 0 -31 17 -49 45 -27 44 -29 46 -73 43 l-45
-3 -3 -42 c-2 -29 -8 -43 -18 -43 -11 0 -14 25 -14 140 l0 140 81 0 c76 0 82
-2 110 -29z m277 2 c5 -16 33 -79 60 -140 46 -103 49 -113 31 -113 -13 0 -25
12 -35 35 l-14 35 -75 0 -75 0 -17 -35 c-10 -21 -24 -35 -35 -35 -16 0 -16 5
8 58 14 31 42 94 61 140 30 67 40 82 59 82 15 0 25 -9 32 -27z m310 -78 l77
-104 3 104 c2 97 4 105 22 105 19 0 20 -7 20 -140 0 -131 -1 -140 -19 -140
-13 0 -46 36 -98 106 l-78 105 -3 -105 c-2 -98 -4 -106 -22 -106 -19 0 -20 7
-20 140 0 134 1 140 20 140 14 0 44 -32 98 -105z m442 90 c19 -10 27 -20 24
-30 -7 -18 -12 -18 -44 0 -72 41 -170 -15 -170 -97 0 -70 81 -122 154 -98 34
11 36 14 36 56 0 32 4 44 15 44 11 0 15 -13 15 -54 0 -51 -2 -54 -34 -70 -76
-36 -168 -10 -202 56 -34 66 -12 151 49 188 39 24 116 26 157 5z m330 -110 l0
-125 60 0 c47 0 60 -3 60 -15 0 -12 -16 -15 -80 -15 l-80 0 0 140 c0 133 1
140 20 140 19 0 20 -7 20 -125z m348 98 c5 -16 33 -79 60 -140 46 -103 49
-113 31 -113 -13 0 -25 12 -35 35 l-14 35 -75 0 -75 0 -17 -35 c-10 -21 -24
-35 -35 -35 -16 0 -16 5 8 58 14 31 42 94 61 140 30 67 40 82 59 82 15 0 25
-9 32 -27z m232 -113 c0 -133 -1 -140 -20 -140 -19 0 -20 7 -20 140 0 133 1
140 20 140 19 0 20 -7 20 -140z m237 33 l78 -106 3 106 c2 99 4 107 22 107 19
0 20 -7 20 -140 0 -133 -1 -140 -20 -140 -14 0 -46 35 -102 110 l-83 111 -3
-111 c-2 -89 -5 -110 -17 -110 -13 0 -15 24 -15 140 0 132 1 140 19 140 13 0
45 -35 98 -107z m-14001 -144 c8 -14 -16 -59 -32 -59 -11 0 -11 17 2 58 4 15
20 16 30 1z m7920 0 c8 -14 -16 -59 -32 -59 -11 0 -11 17 2 58 4 15 20 16 30
1z m-6163 -264 c99 -48 101 -186 5 -245 -26 -15 -51 -20 -110 -20 l-78 0 0
140 0 140 76 0 c48 0 88 -6 107 -15z m367 0 c0 -12 -16 -15 -80 -15 l-80 0 0
-45 0 -45 70 0 c56 0 70 -3 70 -15 0 -12 -14 -15 -70 -15 l-70 0 0 -50 0 -50
85 0 c69 0 85 -3 85 -15 0 -12 -18 -15 -100 -15 l-100 0 0 140 0 140 95 0 c78
0 95 -3 95 -15z m227 -92 l78 -106 3 106 c2 99 4 107 22 107 19 0 20 -7 20
-140 0 -133 -1 -140 -20 -140 -14 0 -46 35 -102 110 l-83 111 -3 -111 c-2 -89
-5 -110 -17 -110 -13 0 -15 24 -15 140 0 132 1 140 19 140 13 0 45 -35 98
-107z m443 89 c34 -28 17 -46 -22 -26 -110 57 -225 -81 -139 -166 34 -35 71
-46 114 -33 29 8 33 13 37 53 4 32 10 46 23 48 14 3 17 -5 17 -51 0 -52 -1
-55 -34 -71 -46 -22 -114 -20 -153 4 -92 56 -94 177 -4 237 44 30 128 32 161
5z m326 -114 c32 -72 61 -135 62 -140 2 -4 -5 -8 -15 -8 -12 0 -26 13 -36 35
l-17 35 -75 0 -75 0 -14 -35 c-10 -23 -22 -35 -35 -35 -18 0 -13 14 40 132 72
159 66 148 88 148 13 0 33 -34 77 -132z m262 27 l77 -104 3 104 c2 97 4 105
22 105 19 0 20 -7 20 -140 0 -131 -1 -140 -19 -140 -13 0 -46 36 -98 106 l-78
105 -3 -105 c-2 -98 -4 -106 -22 -106 -19 0 -20 7 -20 140 0 134 1 140 20 140
14 0 44 -32 98 -105z m583 76 c21 -22 29 -39 29 -66 0 -27 -8 -44 -29 -66 -26
-26 -36 -29 -90 -29 l-61 0 0 -45 c0 -38 -3 -45 -20 -45 -19 0 -20 7 -20 140
l0 140 81 0 c76 0 82 -2 110 -29z m319 14 c0 -12 -16 -15 -80 -15 l-80 0 0
-45 0 -45 70 0 c56 0 70 -3 70 -15 0 -12 -14 -15 -70 -15 l-70 0 0 -50 0 -50
80 0 c64 0 80 -3 80 -15 0 -12 -18 -15 -100 -15 l-100 0 0 140 0 140 100 0
c82 0 100 -3 100 -15z m301 -14 c30 -36 26 -106 -7 -136 l-27 -25 27 -40 c31
-47 31 -50 8 -50 -10 0 -29 19 -44 45 -26 43 -30 45 -73 45 l-45 0 0 -45 c0
-38 -3 -45 -20 -45 -19 0 -20 7 -20 141 l0 141 91 -4 c81 -3 93 -6 110 -27z
m329 14 c17 -9 30 -20 30 -25 0 -18 -20 -20 -49 -5 -50 25 -89 19 -127 -19
-46 -46 -48 -104 -5 -146 38 -39 73 -46 123 -27 63 25 84 1 24 -27 -124 -59
-262 66 -202 182 16 30 53 66 76 75 30 11 102 7 130 -8z m311 -122 c32 -73 59
-135 59 -138 0 -3 -9 -5 -19 -5 -13 0 -23 11 -31 35 l-12 35 -77 0 -77 0 -17
-35 c-9 -19 -23 -35 -32 -35 -21 0 -20 0 26 104 23 50 50 110 60 134 32 74 51
59 120 -95z m152 124 c3 -8 22 -40 42 -71 l37 -58 40 67 c37 62 61 85 74 72 3
-3 -17 -44 -45 -92 -43 -72 -51 -94 -51 -135 0 -43 -3 -50 -20 -50 -17 0 -20
7 -20 51 0 43 -8 64 -50 136 -27 47 -50 87 -50 89 0 11 38 2 43 -9z m469 -121
c32 -71 58 -133 58 -138 0 -22 -32 -4 -47 27 l-17 35 -76 0 -76 0 -13 -35 c-8
-24 -18 -35 -33 -35 -12 0 -18 5 -15 13 3 6 31 70 63 140 75 167 78 167 156
-7z m481 119 c99 -48 101 -186 5 -245 -26 -15 -51 -20 -110 -20 l-78 0 0 140
0 140 76 0 c48 0 88 -6 107 -15z m207 -125 c0 -118 -2 -140 -15 -140 -13 0
-15 22 -15 140 0 118 2 140 15 140 13 0 15 -22 15 -140z m321 111 c30 -36 26
-106 -7 -136 l-27 -25 27 -40 c31 -47 31 -50 8 -50 -10 0 -29 19 -44 45 -26
43 -30 45 -73 45 l-45 0 0 -45 c0 -38 -3 -45 -20 -45 -19 0 -20 7 -20 141 l0
141 91 -4 c81 -3 93 -6 110 -27z m169 -111 c0 -133 -1 -140 -20 -140 -19 0
-20 7 -20 140 0 133 1 140 20 140 19 0 20 -7 20 -140z m-15336 -89 c3 -4 -6
-6 -19 -3 -14 2 -25 6 -25 8 0 8 39 4 44 -5z m123 -27 c-3 -3 -12 -4 -19 -1
-8 3 -5 6 6 6 11 1 17 -2 13 -5z m40 -10 c-3 -3 -12 -4 -19 -1 -8 3 -5 6 6 6
11 1 17 -2 13 -5z m208 -34 c27 -7 27 -8 5 -8 -14 0 -36 4 -50 8 -20 6 -21 8
-5 8 11 0 34 -4 50 -8z m18870 -2286 c35 -38 35 -105 -1 -151 -56 -73 -134
-94 -179 -48 -29 29 -32 72 -10 136 29 81 38 89 106 89 52 0 63 -3 84 -26z
m401 -280 c61 -47 65 -145 8 -205 -36 -38 -85 -39 -119 -4 -46 45 -29 167 30
213 35 28 39 28 81 -4z m556 -72 c24 -54 20 -115 -13 -192 -38 -88 -100 -114
-156 -66 -40 34 -38 98 5 190 18 38 32 74 32 82 0 7 17 22 38 33 47 24 67 15
94 -47z m-1604 -41 c7 -4 26 -34 43 -67 24 -50 29 -71 29 -135 0 -100 -22
-171 -69 -221 -32 -35 -45 -41 -87 -45 -47 -5 -52 -3 -77 26 -34 41 -43 91
-29 169 11 64 66 190 99 227 19 22 64 55 73 55 3 0 11 -4 18 -9z m702 -81 c11
-6 25 -28 31 -50 25 -81 -35 -237 -110 -287 -49 -33 -105 -31 -128 4 -34 51
-12 153 53 246 19 26 34 52 34 58 0 33 79 51 120 29z m408 -386 c62 -43 -13
-207 -105 -230 -62 -16 -120 39 -109 101 8 40 37 72 105 116 51 33 77 36 109
13z m601 -90 c23 -29 29 -112 11 -158 -15 -40 -78 -104 -110 -111 -38 -8 -84
16 -100 54 -17 43 20 163 66 209 43 43 102 46 133 6z m-1180 -202 c5 -10 13
-52 17 -94 8 -96 -15 -158 -70 -185 -34 -16 -38 -16 -71 0 -43 20 -53 53 -36
121 7 28 12 69 12 92 -1 59 25 78 111 83 17 0 31 -6 37 -17z m-1013 -13 c28
-31 26 -148 -4 -205 -44 -87 -126 -120 -173 -73 -30 30 -22 103 20 170 17 28
31 58 31 68 0 22 19 40 57 51 43 13 48 12 69 -11z m587 -37 c67 -74 61 -211
-13 -284 -57 -57 -122 -51 -156 14 -21 41 -14 139 14 195 41 80 117 117 155
75z m736 -226 c8 -9 8 -38 2 -97 -19 -195 -158 -335 -255 -258 -35 28 -34 70
4 145 30 60 136 189 174 211 28 16 61 16 75 -1z m1254 -40 c49 -46 45 -142
-10 -214 -31 -41 -79 -72 -112 -72 -33 0 -71 37 -71 69 0 33 39 117 73 157 15
18 27 38 27 46 0 42 54 50 93 14z m-620 -77 c32 -24 52 -85 43 -131 -20 -108
-131 -174 -191 -113 -21 20 -25 34 -25 82 0 77 31 141 80 165 46 22 62 22 93
-3z"/>
<path d="M5320 9216 l0 -86 74 0 c59 0 78 4 100 21 32 25 36 84 7 120 -17 21
-30 24 -100 27 l-81 4 0 -86z"/>
<path d="M7620 9149 l0 -152 81 6 c87 6 114 18 153 70 13 18 20 42 20 75 0 98
-66 152 -187 152 l-67 0 0 -151z"/>
<path d="M9573 9195 l-41 -95 84 0 c96 0 93 -12 33 117 l-34 72 -42 -94z"/>
<path d="M10863 9198 l-40 -93 38 -3 c21 -2 58 -2 82 0 l43 3 -42 93 -41 93
-40 -93z"/>
<path d="M12403 9195 l-41 -95 84 0 c96 0 93 -12 33 117 l-34 72 -42 -94z"/>
<path d="M15130 9216 l0 -86 79 0 c92 0 118 15 127 71 5 29 1 41 -19 65 -23
27 -31 29 -106 32 l-81 4 0 -86z"/>
<path d="M16512 9153 l3 -148 75 1 c129 1 184 50 177 156 -6 96 -62 138 -187
138 l-71 0 3 -147z"/>
<path d="M17053 9198 l-40 -93 38 -3 c21 -2 58 -2 82 0 l43 3 -42 93 -41 93
-40 -93z"/>
<path d="M19182 9153 l3 -148 75 1 c129 1 184 50 177 156 -6 96 -62 138 -187
138 l-71 0 3 -147z"/>
<path d="M19723 9195 l-41 -95 84 0 c96 0 93 -12 33 117 l-34 72 -42 -94z"/>
<path d="M10825 7211 c-170 -81 -360 -321 -340 -428 11 -59 66 -69 154 -28 72
34 170 137 240 251 66 107 85 130 117 138 32 8 30 18 -10 60 -42 45 -78 47
-161 7z"/>
<path d="M16023 7125 c-93 -28 -168 -93 -148 -125 15 -25 319 9 357 39 30 25
16 58 -35 82 -48 22 -114 23 -174 4z"/>
<path d="M3050 4864 l0 -66 56 4 c62 5 87 23 87 64 0 41 -35 64 -94 64 l-49 0
0 -66z"/>
<path d="M3660 4865 l0 -65 45 0 c80 0 118 34 100 90 -8 26 -43 40 -101 40
l-44 0 0 -65z"/>
<path d="M4347 4848 c-15 -34 -25 -63 -23 -65 2 -2 29 -3 59 -1 l55 3 -26 62
c-15 35 -30 63 -33 63 -3 0 -18 -28 -32 -62z"/>
<path d="M6197 4848 c-15 -34 -25 -63 -23 -65 2 -2 29 -3 59 -1 l55 3 -26 62
c-15 35 -30 63 -33 63 -3 0 -18 -28 -32 -62z"/>
<path d="M7138 4847 l-26 -62 55 -3 c30 -2 57 -1 59 1 5 5 -48 127 -55 127 -3
0 -18 -28 -33 -63z"/>
<path d="M9097 4860 c-15 -34 -27 -66 -27 -71 0 -5 25 -9 55 -9 30 0 55 4 55
9 0 4 -13 36 -28 71 l-29 62 -26 -62z"/>
<path d="M9390 4820 l0 -110 48 0 c68 0 114 26 131 75 28 83 -29 145 -134 145
l-45 0 0 -110z"/>
<path d="M10258 4847 l-26 -62 55 -3 c30 -2 57 -1 59 1 5 5 -48 127 -55 127
-3 0 -18 -28 -33 -63z"/>
<path d="M11098 4847 l-26 -62 55 -3 c30 -2 57 -1 59 1 5 5 -48 127 -55 127
-3 0 -18 -28 -33 -63z"/>
<path d="M11777 4860 c-15 -34 -27 -66 -27 -71 0 -5 25 -9 55 -9 30 0 55 4 55
9 0 4 -13 36 -28 71 l-29 62 -26 -62z"/>
<path d="M12060 4864 l0 -66 60 4 c68 5 93 22 93 64 0 42 -35 64 -99 64 l-54
0 0 -66z"/>
<path d="M13310 4820 l0 -110 48 0 c68 0 114 26 131 75 28 83 -29 145 -134
145 l-45 0 0 -110z"/>
<path d="M13698 4847 l-26 -62 55 -3 c30 -2 57 -1 59 1 5 5 -48 127 -55 127
-3 0 -18 -28 -33 -63z"/>
<path d="M14500 4819 l0 -111 66 4 c60 4 70 7 95 36 20 22 29 43 29 67 0 76
-46 115 -139 115 l-51 0 0 -111z"/>
<path d="M15917 4856 c-15 -36 -27 -69 -27 -71 0 -3 25 -5 55 -5 64 0 65 2 27
84 l-27 59 -28 -67z"/>
<path d="M16740 4885 l0 -45 51 0 c63 0 89 13 89 45 0 32 -26 45 -89 45 l-51
0 0 -45z"/>
<path d="M16740 4760 l0 -52 66 4 c50 3 70 9 80 23 8 10 14 22 14 25 0 3 -6
15 -14 25 -10 14 -30 20 -80 23 l-66 4 0 -52z"/>
<path d="M17107 4848 c-15 -34 -25 -63 -23 -65 2 -2 29 -3 59 -1 l55 3 -26 62
c-15 35 -30 63 -33 63 -3 0 -18 -28 -32 -62z"/>
<path d="M18258 4847 l-26 -62 55 -3 c30 -2 57 -1 59 1 5 5 -48 127 -55 127
-3 0 -18 -28 -33 -63z"/>
<path d="M19863 4910 c-45 -27 -62 -84 -38 -133 16 -35 64 -67 99 -67 35 0 85
30 100 59 20 38 20 64 1 101 -30 57 -104 76 -162 40z"/>
<path d="M20200 4864 l0 -66 60 4 c68 5 93 22 93 64 0 42 -35 64 -99 64 l-54
0 0 -66z"/>
<path d="M20577 4860 c-15 -34 -27 -66 -27 -71 0 -5 25 -9 55 -9 30 0 55 4 55
9 0 4 -13 36 -28 71 l-29 62 -26 -62z"/>
<path d="M22007 4860 c-15 -34 -27 -66 -27 -71 0 -5 25 -9 55 -9 30 0 55 4 55
9 0 4 -13 36 -28 71 l-29 62 -26 -62z"/>
<path d="M10140 4319 l0 -111 66 4 c60 4 70 7 95 36 20 22 29 43 29 67 0 76
-46 115 -139 115 l-51 0 0 -111z"/>
<path d="M11547 4356 c-15 -36 -27 -69 -27 -71 0 -3 25 -5 55 -5 64 0 65 2 27
84 l-27 59 -28 -67z"/>
<path d="M12350 4364 l0 -66 56 4 c62 5 87 23 87 64 0 41 -35 64 -94 64 l-49
0 0 -66z"/>
<path d="M12960 4365 l0 -65 45 0 c80 0 118 34 100 90 -8 26 -43 40 -101 40
l-44 0 0 -65z"/>
<path d="M13647 4348 c-15 -34 -25 -63 -23 -65 2 -2 29 -3 59 -1 l55 3 -26 62
c-15 35 -30 63 -33 63 -3 0 -18 -28 -32 -62z"/>
<path d="M14268 4347 l-26 -62 55 -3 c30 -2 57 -1 59 1 5 5 -48 127 -55 127
-3 0 -18 -28 -33 -63z"/>
<path d="M14710 4319 l0 -111 66 4 c60 4 70 7 95 36 20 22 29 43 29 67 0 76
-46 115 -139 115 l-51 0 0 -111z"/>
<path d="M15230 4365 l0 -65 45 0 c80 0 118 34 100 90 -8 26 -43 40 -101 40
l-44 0 0 -65z"/>
<path d="M16393 12768 c-44 -59 -185 -264 -198 -288 -16 -30 13 6 139 173 72
93 121 167 113 167 -8 0 -32 -24 -54 -52z"/>
<path d="M17003 12743 c-76 -85 -133 -160 -133 -176 0 -6 9 -2 20 8 11 10 22
16 25 13 3 -3 -21 -30 -53 -59 -49 -46 -55 -54 -36 -55 16 -1 26 7 35 28 7 16
36 50 65 76 30 25 57 54 60 65 3 10 32 45 64 77 32 32 63 68 70 79 10 19 8 21
-18 21 -24 0 -42 -15 -99 -77z"/>
<path d="M23731 12805 c20 -7 61 -18 90 -24 30 -7 85 -29 123 -49 60 -32 72
-43 84 -77 19 -57 10 -138 -25 -215 -29 -63 -33 -67 -111 -110 -71 -38 -80
-47 -68 -59 19 -18 204 -57 316 -66 26 -2 74 -11 109 -20 35 -9 142 -29 238
-45 97 -16 178 -32 182 -36 10 -11 -152 3 -214 19 -33 9 -112 20 -175 26 -63
6 -191 27 -285 47 -210 44 -260 51 -305 43 -35 -5 -35 -6 -10 -16 14 -6 34
-13 45 -16 11 -4 7 -4 -10 -1 -98 15 -109 14 -45 -6 128 -40 580 -122 660
-119 l25 1 -25 8 c-14 4 -18 8 -10 9 22 1 256 -37 320 -53 30 -8 80 -14 110
-14 l55 1 -40 13 c-22 7 -56 14 -75 15 -19 1 -1 5 40 9 51 5 91 3 125 -6 28
-8 111 -22 185 -33 150 -22 207 -39 257 -77 46 -35 54 -61 42 -135 -18 -112
-66 -179 -207 -285 -46 -34 -79 -65 -74 -67 4 -3 48 -13 97 -21 50 -9 106 -21
125 -27 19 -6 51 -10 70 -10 19 1 71 -8 114 -19 44 -11 92 -20 108 -20 l28 0
0 725 0 725 -952 -1 c-805 0 -947 -2 -917 -14z m129 -625 c20 -6 21 -8 5 -8
-11 0 -29 3 -40 8 -25 11 1 11 35 0z m265 -49 c34 -7 35 -9 10 -9 -16 0 -43 4
-60 8 -42 11 -1 11 50 1z"/>
<path d="M17426 12627 c-10 -7 -17 -20 -15 -28 3 -10 11 -7 33 14 30 28 16 39
-18 14z"/>
<path d="M17045 12520 c-10 -11 -16 -22 -13 -25 3 -3 13 4 23 15 10 11 16 22
13 25 -3 3 -13 -4 -23 -15z"/>
<path d="M17331 12504 c-19 -24 -27 -44 -17 -44 2 0 16 16 30 35 15 19 23 35
17 35 -5 0 -19 -12 -30 -26z"/>
<path d="M17480 12515 c0 -8 -5 -15 -11 -15 -20 0 -128 -111 -122 -126 3 -9
-1 -14 -12 -14 -10 0 -14 5 -9 13 4 6 -9 -3 -29 -22 -20 -19 -34 -37 -32 -40
3 -2 11 1 17 7 7 7 17 12 22 12 6 0 -9 -18 -32 -40 -42 -41 -69 -80 -55 -80 9
0 196 189 256 258 21 24 35 47 32 52 -9 15 -25 12 -25 -5z"/>
<path d="M16929 12433 c-48 -49 -110 -117 -139 -153 -63 -77 -170 -237 -170
-254 0 -7 -43 -66 -96 -132 -126 -156 -187 -247 -240 -358 -36 -78 -68 -166
-60 -166 7 0 106 129 106 138 0 5 7 15 15 22 9 7 13 15 11 18 -9 8 32 79 74
127 22 25 40 50 40 55 0 5 7 16 16 25 28 28 64 85 54 85 -6 0 -10 -4 -10 -10
0 -5 -5 -10 -10 -10 -6 0 25 43 70 95 90 106 161 201 240 320 29 44 69 96 89
116 50 49 104 119 92 119 -5 0 -21 -14 -35 -32 -14 -18 -27 -30 -30 -27 -3 3
13 28 34 57 22 29 39 52 37 52 -1 0 -41 -39 -88 -87z"/>
<path d="M16777 12445 c-9 -22 8 -26 21 -4 10 15 10 19 -2 19 -8 0 -16 -7 -19
-15z"/>
<path d="M16742 12400 c-25 -20 -29 -40 -8 -40 16 0 49 47 38 54 -4 2 -17 -4
-30 -14z"/>
<path d="M16598 12399 c-10 -5 -18 -15 -18 -22 0 -8 3 -9 8 -1 4 6 16 16 27
22 11 6 16 11 10 11 -5 0 -18 -4 -27 -10z"/>
<path d="M16944 12305 c-44 -53 -90 -114 -102 -138 l-24 -42 47 50 c43 47 171
225 162 225 -3 0 -40 -43 -83 -95z"/>
<path d="M16676 12355 c-10 -14 -16 -29 -13 -31 7 -8 39 35 35 47 -2 7 -12 0
-22 -16z"/>
<path d="M16690 12329 c-17 -31 -7 -33 20 -4 19 20 20 25 7 25 -9 0 -21 -9
-27 -21z"/>
<path d="M16505 12283 c-60 -74 -86 -123 -48 -92 9 8 19 14 22 13 8 -1 81 97
81 108 0 19 -27 5 -55 -29z"/>
<path d="M23586 12170 c6 -6 28 -13 50 -16 39 -5 39 -5 14 10 -29 18 -80 22
-64 6z"/>
<path d="M23690 12140 c20 -13 50 -13 50 0 0 6 -15 10 -32 10 -25 0 -29 -3
-18 -10z"/>
<path d="M17031 12056 c-47 -47 -88 -83 -92 -80 -12 7 -114 -92 -155 -152 -23
-33 -38 -65 -36 -79 2 -13 -14 -47 -41 -87 -25 -36 -48 -76 -52 -89 -4 -13 15
10 43 51 28 41 67 91 87 110 36 34 35 32 -17 -50 -83 -128 -88 -142 -39 -95
23 22 75 93 114 158 40 66 112 169 160 230 112 141 130 167 120 167 -5 0 -46
-38 -92 -84z"/>
<path d="M23782 12129 c17 -6 25 -15 21 -25 -3 -9 2 -14 16 -14 42 0 19 35
-29 44 -32 5 -33 5 -8 -5z"/>
<path d="M24064 12071 c5 -8 -12 -10 -66 -6 l-73 5 60 -14 c72 -17 167 -22
214 -11 32 8 33 9 13 16 -41 15 -156 23 -148 10z"/>
<path d="M24495 12050 c11 -5 34 -8 50 -8 29 0 29 0 5 8 -14 4 -36 8 -50 8
-23 1 -23 0 -5 -8z"/>
<path d="M17100 12005 c-18 -19 -26 -22 -32 -13 -6 10 -17 4 -39 -22 -98 -113
-239 -324 -225 -337 4 -4 32 20 62 53 47 49 53 53 39 26 -9 -19 -14 -37 -10
-40 9 -10 51 38 90 103 29 48 35 66 30 93 -5 28 -2 36 26 60 18 15 36 27 39
27 8 0 60 60 60 69 0 13 -18 5 -40 -19z"/>
<path d="M16303 11998 c-11 -13 -24 -34 -27 -48 -7 -24 -7 -25 9 -5 18 22 48
75 42 75 -2 0 -13 -10 -24 -22z"/>
<path d="M16224 11906 c-10 -8 -16 -17 -13 -20 3 -3 14 3 24 14 21 23 17 26
-11 6z"/>
<path d="M17767 11812 c-20 -21 -37 -41 -37 -45 0 -13 58 22 74 45 36 51 12
51 -37 0z"/>
<path d="M17597 11747 c-12 -12 -37 -44 -55 -71 -18 -27 -36 -46 -39 -42 -3 3
0 12 7 21 11 13 10 14 -4 9 -9 -3 -37 -33 -61 -66 -42 -54 -35 -68 9 -19 33
37 39 23 7 -16 -29 -35 -41 -74 -23 -72 17 1 102 114 102 135 0 16 10 28 28
38 25 13 82 82 82 99 0 15 -32 6 -53 -16z"/>
<path d="M24605 11680 c-17 -19 -17 -20 -2 -14 10 3 23 2 30 -4 18 -15 154 6
136 22 -2 2 -36 6 -75 10 -63 5 -73 4 -89 -14z"/>
<path d="M17675 11590 c-38 -38 -73 -70 -77 -70 -5 0 1 18 12 40 11 22 16 40
11 40 -11 0 -103 -104 -191 -215 -58 -73 -61 -80 -41 -85 19 -4 15 -10 -35
-49 -55 -43 -150 -158 -139 -169 9 -9 141 126 193 196 25 34 53 62 62 62 9 0
27 12 41 27 22 25 22 26 1 9 -12 -11 -25 -17 -28 -14 -3 3 23 35 57 70 34 34
52 51 41 37 -23 -26 -30 -55 -12 -44 35 21 196 235 178 235 -2 0 -35 -31 -73
-70z"/>
<path d="M25090 11420 c14 -4 32 -8 40 -9 13 -1 13 0 0 9 -8 5 -26 9 -40 9
l-25 -1 25 -8z"/>
<path d="M24960 11411 c0 -11 154 -43 390 -81 102 -16 200 -32 218 -36 25 -5
32 -3 32 9 0 11 -14 17 -47 20 -78 9 -162 25 -278 53 -68 16 -124 24 -148 21
-22 -3 -57 1 -79 9 -45 16 -88 18 -88 5z"/>
<path d="M25388 11373 c6 -2 18 -2 25 0 6 3 1 5 -13 5 -14 0 -19 -2 -12 -5z"/>
<path d="M25450 11359 c0 -5 5 -7 10 -4 6 3 10 8 10 11 0 2 -4 4 -10 4 -5 0
-10 -5 -10 -11z"/>
<path d="M24985 11340 c3 -5 16 -10 28 -9 21 0 21 1 2 9 -28 12 -37 12 -30 0z"/>
<path d="M25540 11230 c20 -13 63 -13 55 0 -3 6 -21 10 -38 10 -24 0 -28 -3
-17 -10z"/>
<path d="M17236 11181 c-11 -12 -16 -24 -12 -28 9 -9 39 22 34 37 -2 7 -10 4
-22 -9z"/>
<path d="M25490 7451 c14 -26 91 -111 101 -111 5 0 9 19 9 43 l0 42 -59 21
c-51 17 -59 18 -51 5z"/>
<path d="M24410 5660 c0 -5 4 -10 10 -10 5 0 7 -6 4 -14 -8 -21 107 -110 204
-158 45 -23 84 -39 87 -36 8 8 -138 128 -222 182 -76 49 -83 52 -83 36z"/>
<path d="M80 4195 c28 -16 60 -19 60 -6 0 5 -14 11 -31 15 -48 9 -56 7 -29 -9z"/>
<path d="M179 4165 c20 -9 43 -12 60 -8 l26 7 -30 7 c-16 4 -43 7 -60 7 l-30
1 34 -14z"/>
<path d="M286 4145 c15 -11 16 -15 4 -15 -10 -1 -8 -4 5 -9 27 -11 37 -4 25
20 -6 10 -20 19 -32 19 -21 0 -21 0 -2 -15z"/>
<path d="M560 4099 c-9 -5 -47 -8 -90 -5 l-75 5 60 -14 c88 -21 211 -30 219
-17 4 6 13 9 20 6 8 -3 17 -1 20 5 4 5 -17 12 -51 16 -32 4 -65 8 -73 11 -8 2
-22 -1 -30 -7z"/>
<path d="M998 4073 c12 -2 32 -2 45 0 12 2 2 4 -23 4 -25 0 -35 -2 -22 -4z"/>
<path d="M1095 3708 c-20 -20 -20 -20 3 -14 14 5 22 3 22 -4 0 -12 113 -4 140
10 13 8 -6 12 -115 24 -20 2 -37 -3 -50 -16z"/>
<path d="M1560 3450 c14 -4 34 -8 45 -8 l20 -1 -20 9 c-11 5 -31 8 -45 8 l-25
0 25 -8z"/>
<path d="M1455 3440 c-9 -15 113 -42 394 -85 91 -14 224 -38 295 -54 153 -33
218 -43 210 -30 -3 5 -21 9 -40 9 -19 0 -48 7 -63 14 -15 8 -52 18 -82 22 -30
4 -65 12 -79 19 -14 7 -63 18 -110 25 -47 6 -131 23 -188 36 -56 14 -131 25
-165 26 -34 0 -81 6 -105 14 -51 17 -59 17 -67 4z"/>
<path d="M1875 3400 c-3 -5 3 -10 15 -10 12 0 18 5 15 10 -3 6 -10 10 -15 10
-5 0 -12 -4 -15 -10z"/>
<path d="M1485 3360 c28 -12 37 -12 30 0 -3 6 -16 10 -28 9 -21 0 -21 -1 -2
-9z"/>
<path d="M2020 3262 c23 -15 97 -27 85 -14 -5 6 -30 14 -55 17 -31 4 -40 3
-30 -3z"/>
<path d="M6688 273 c-53 -59 -65 -93 -17 -47 31 29 74 93 68 98 -2 1 -25 -21
-51 -51z"/>
<path d="M7300 305 c-11 -13 -10 -14 4 -9 9 3 16 10 16 15 0 13 -6 11 -20 -6z"/>
<path d="M6518 233 c-27 -4 -92 -67 -186 -181 -41 -49 -42 -52 -20 -52 15 0
51 27 109 83 47 45 100 94 117 109 18 14 32 31 32 37 0 11 -3 11 -52 4z"/>
<path d="M7150 160 c-32 -30 -35 -48 -6 -37 17 7 51 55 44 63 -3 2 -20 -9 -38
-26z"/>
<path d="M7090 89 c-22 -18 -22 -19 -3 -10 12 6 25 16 28 21 9 15 3 12 -25
-11z"/>
<path d="M7010 15 c-8 -9 -8 -15 -2 -15 12 0 26 19 19 26 -2 2 -10 -2 -17 -11z"/>
</g>
</svg>
